<svg width="25" height="25" viewBox="0 0 25 25" fill="none" xmlns="http://www.w3.org/2000/svg">
<path d="M12.1229 14.2027C12.8583 14.2027 13.449 13.606 13.449 12.8767C13.449 12.1473 12.8583 11.5506 12.1229 11.5506C11.3936 11.5506 10.7969 12.1473 10.7969 12.8767C10.7969 13.606 11.3936 14.2027 12.1229 14.2027Z" fill="white"/>
<path d="M12.1232 0.82193C5.46292 0.82193 0.0683594 6.21649 0.0683594 12.8767C0.0683594 19.531 5.46292 24.9316 12.1232 24.9316C18.7834 24.9316 24.178 19.531 24.178 12.8767C24.178 6.21649 18.7835 0.82193 12.1232 0.82193ZM14.7632 15.5168L4.89027 20.1096L9.48317 10.2367L19.3561 5.64385L14.7632 15.5168Z" fill="white"/>
</svg>
