<svg width="237" height="246" viewBox="0 0 237 246" fill="none" xmlns="http://www.w3.org/2000/svg">
<path fill-rule="evenodd" clip-rule="evenodd" d="M76.0833 2.60895C130.677 -10.4538 159.906 44.2494 188.148 84.7105C215 123.179 250.945 167.643 218.375 206.461C182.521 249.19 114.394 253.989 61.7458 235.355C15.5867 219.018 -1.83775 174.607 0.940654 129.504C4.10166 78.1899 19.0906 16.2457 76.0833 2.60895Z" fill="#2395FF" fill-opacity="0.24"/>
<path d="M47.8654 167.272C49.1803 169.224 51.0269 170.331 52.9594 170.328L80.2907 170.277C82.4476 170.273 84.5736 169.577 86.4965 168.245L147.415 126.104C153.014 122.231 158.032 116.702 161.447 109.461C165.281 101.333 165.697 95.4504 164.184 91.2948C162.674 87.1363 159.004 84.0824 151.988 83.4602C145.738 82.9065 139.522 85.1499 133.923 89.0201L113.298 103.288L67.5086 79.8669C66.9581 79.3613 66.3185 79.0654 65.6559 79.0097C64.9933 78.954 64.3319 79.1405 63.7399 79.5501L49.9738 89.0743C47.7398 90.6184 47.1996 94.6826 48.8913 97.2171L81.5993 125.216L59.9901 140.166L44.8421 129.757C44.3202 129.398 43.7438 129.212 43.1593 129.213C42.5749 129.214 41.9988 129.402 41.4775 129.763L33.0755 135.577C30.8896 137.089 30.3139 141.034 31.9093 143.591L47.8654 167.272Z" fill="#2395FF"/>
<path d="M40.9155 242.929C41.3767 243.613 42.0244 244.001 42.7022 244L52.2885 243.982C53.0451 243.981 53.7907 243.737 54.4652 243.27L75.8322 228.504C77.7958 227.147 79.5561 225.21 80.7538 222.673C82.0985 219.825 82.2446 217.764 81.7136 216.308C81.1842 214.851 79.8968 213.781 77.436 213.563C75.2439 213.369 73.0636 214.155 71.0999 215.511L63.8657 220.51L47.8053 212.304C47.6122 212.127 47.3878 212.023 47.1554 212.003C46.923 211.984 46.691 212.049 46.4834 212.193L41.655 215.53C40.8714 216.071 40.682 217.495 41.2753 218.383L52.7475 228.193L45.1682 233.432L39.8551 229.784C39.672 229.659 39.4698 229.593 39.2648 229.594C39.0598 229.594 38.8578 229.66 38.675 229.786L35.728 231.824C34.9613 232.354 34.7593 233.736 35.3189 234.632L40.9155 242.929Z" fill="#70BAFF"/>
<path d="M195.915 139.929C196.377 140.613 197.024 141.001 197.702 141L207.289 140.982C208.045 140.981 208.791 140.737 209.465 140.27L230.832 125.504C232.796 124.147 234.556 122.21 235.754 119.673C237.098 116.825 237.245 114.764 236.714 113.308C236.184 111.851 234.897 110.781 232.436 110.563C230.244 110.369 228.064 111.155 226.1 112.511L218.866 117.51L202.805 109.304C202.612 109.127 202.388 109.023 202.155 109.003C201.923 108.984 201.691 109.049 201.483 109.193L196.655 112.53C195.871 113.071 195.682 114.495 196.275 115.383L207.748 125.193L200.168 130.432L194.855 126.784C194.672 126.659 194.47 126.593 194.265 126.594C194.06 126.594 193.858 126.66 193.675 126.786L190.728 128.824C189.961 129.354 189.759 130.736 190.319 131.632L195.915 139.929Z" fill="#84C4FF"/>
<path d="M133.021 27.4645C133.256 27.8065 133.587 28.0005 133.933 28L138.828 27.991C139.215 27.9903 139.595 27.8683 139.94 27.635L150.85 20.2522C151.853 19.5737 152.752 18.6051 153.364 17.3366C154.05 15.9125 154.125 14.882 153.854 14.1539C153.583 13.4254 152.926 12.8904 151.669 12.7814C150.55 12.6844 149.437 13.0774 148.434 13.7554L144.74 16.255L136.539 12.1519C136.44 12.0633 136.326 12.0114 136.207 12.0017C136.088 11.9919 135.97 12.0246 135.864 12.0964L133.398 13.7649C132.998 14.0354 132.901 14.7475 133.204 15.1915L139.063 20.0967L135.192 22.7158L132.479 20.8922C132.386 20.8294 132.282 20.7967 132.178 20.7969C132.073 20.7971 131.97 20.8301 131.877 20.8932L130.372 21.9118C129.98 22.1768 129.877 22.8678 130.163 23.3158L133.021 27.4645Z" fill="#70BAFF"/>
</svg>
